<svg xmlns="http://www.w3.org/2000/svg" viewBox="0 0 41 58">
<path d="M37.54,56.94c0.07-0.02,0.15-0.04,0.22-0.07c0.12-0.04,0.24-0.08,0.36-0.13c0.09-0.03,0.18-0.06,0.26-0.1
c0.11-0.04,0.2-0.09,0.31-0.14c0.08-0.04,0.17-0.08,0.25-0.12c0.11-0.06,0.2-0.12,0.3-0.19c0.06-0.04,0.13-0.08,0.19-0.12
c0.15-0.11,0.3-0.22,0.43-0.35l0.5-0.47l-2.18-5.45V0h-22v1v6h-6h-1v1v6h-6h-1v16v1v18.81L0,55.26l0.5,0.47
c0.14,0.13,0.29,0.25,0.45,0.37c0.06,0.04,0.12,0.07,0.18,0.11c0.11,0.07,0.22,0.14,0.35,0.21c0.08,0.04,0.17,0.08,0.26,0.12
c0.11,0.05,0.22,0.11,0.33,0.15c0.13,0.05,0.26,0.09,0.39,0.14c0.08,0.03,0.16,0.06,0.24,0.08c0.93,0.28,1.98,0.43,3.02,0.43
c1.61,0,3.19-0.35,4.26-1.06c2.03,1.4,4.77,1.4,6.8,0c2.03,1.4,4.77,1.4,6.8,0c2.03,1.4,4.77,1.4,6.8,0
c0.25,0.17,0.53,0.31,0.83,0.43c0.01,0,0.02,0.01,0.03,0.02c1.6,0.67,3.8,0.78,5.68,0.37c0.04-0.01,0.08-0.02,0.12-0.03
C37.22,57.03,37.38,56.99,37.54,56.94z M37.3,54.93L37.3,54.93c-0.74,0.25-1.66,0.4-2.64,0.4l0,0c-1.19,0-2.3-0.23-2.99-0.6
c-0.1-0.06-0.2-0.11-0.28-0.18c-0.6-0.45-1.44-0.45-2.04,0c-0.01,0.01-0.03,0.02-0.05,0.03c-1.34,0.97-3.39,0.96-4.72-0.03
c-0.6-0.45-1.44-0.45-2.04,0c-1.34,1-3.42,1-4.76,0c-0.6-0.45-1.44-0.45-2.04,0c-1.34,1-3.42,1-4.76,0c-0.6-0.45-1.44-0.45-2.04,0
c-0.08,0.06-0.18,0.12-0.28,0.18C8,55.1,6.89,55.33,5.7,55.33c-0.97,0-1.89-0.14-2.62-0.39c-0.01,0-0.01,0-0.02-0.01
c-0.23-0.08-0.45-0.17-0.64-0.27c-0.01,0-0.01-0.01-0.02-0.01l1.78-4.45V32.53l23.6,10.38c0.13,0.06,0.27,0.08,0.4,0.08
c0.15,0,0.29-0.03,0.43-0.1c0.26-0.12,0.46-0.36,0.53-0.64l7.04-25.8v33.73l1.78,4.45c-0.01,0-0.01,0.01-0.02,0.01
C37.75,54.76,37.54,54.85,37.3,54.93z M30.18,9v3.15l-3,1.85l0,0h-2V9H30.18z M25.18,7V2h5v5H25.18z M35.55,11.18l-8.03,29.43
L4.38,30.43l5.5-3.4L35.55,11.18z M32.18,10.91V9h3.1L32.18,10.91z M23.18,14h-5V9h5V14z M23.18,16v0.47l-5,3.09V16H23.18z
M16.18,20.8L15.85,21h-4.67v-5h5V20.8z M12.61,23l-1.43,0.88V23H12.61z M9.18,25.12l-5,3.09V23h5V25.12z M36.18,7h-4V2h4V7z
M18.18,2h5v5h-5V2z M11.18,9h5v5h-5V9z M9.18,16v5h-5v-5H9.18z"/>
<rect x="7.18" y="49" class="st0" width="2" height="2"/>
<rect x="10.18" y="49" class="st0" width="2" height="2"/>
<rect x="13.18" y="49" class="st0" width="2" height="2"/>
<rect x="16.18" y="49" class="st0" width="2" height="2"/>
<rect x="19.18" y="49" class="st0" width="2" height="2"/>
<rect x="22.18" y="49" class="st0" width="2" height="2"/>
<rect x="25.18" y="49" class="st0" width="2" height="2"/>
<rect x="28.18" y="49" class="st0" width="2" height="2"/>
<rect x="31.18" y="49" class="st0" width="2" height="2"/>
</svg>
