<svg 
	xmlns="http://www.w3.org/2000/svg" viewBox="0 0 84 52">
	<style>
	.st0{fill:#E91E25;}
	.st1{fill:#F69E1F;}
	.st2{fill:#F26122;}
</style>
<path class="st0" d="M56.22,26.5c0-8.32-3.92-15.73-10-20.49c-6.08,4.76-10,12.16-10,20.49s3.92,15.73,10,20.49
	C52.31,42.23,56.22,34.82,56.22,26.5z"/>

	<path class="st0" d="M32,26c0-8.32,3.92-15.73,10-20.49C37.59,2.06,32.04,0,26,0h0C11.64,0,0,11.64,0,26s11.64,26,26,26h0
		c6.04,0,11.59-2.06,16-5.51C35.92,41.73,32,34.32,32,26z"/>
	<path class="st1" d="M58,0L58,0c-6.04,0-11.59,2.06-16,5.51C48.08,10.27,52,17.68,52,26s-3.92,15.73-10,20.49
		C46.41,49.94,51.96,52,58,52h0c14.36,0,26-11.64,26-26S72.36,0,58,0z"/>
	<path class="st2" d="M52,26c0-8.32-3.92-15.73-10-20.49C35.92,10.27,32,17.68,32,26s3.92,15.73,10,20.49
		C48.08,41.73,52,34.32,52,26z"/>
</svg>
