<svg xmlns="http://www.w3.org/2000/svg" viewBox="0 0 48 46">
<path d="M36.7,46c-0.1,0-0.2,0-0.3,0c-0.4-0.1-0.6-0.4-0.7-0.8l-1.6-10.5l-6.6,0.7c-0.3,0-0.6-0.1-0.8-0.3L11.1,19
c-0.2-0.2-0.3-0.4-0.3-0.7v-5.2c-0.3,0-0.7,0-1,0c-5.3,0-9-1.5-9.2-1.5c-0.3-0.1-0.5-0.4-0.6-0.7c-0.1-0.3,0-0.7,0.3-0.9l9.4-9.6
C9.9,0.1,10.2,0,10.5,0c0.3,0,0.6,0.2,0.7,0.5c1.9,3.1,2.4,7.1,2.5,9.1l5.6-1.4c0.3-0.1,0.7,0,0.9,0.3L37.2,25
c0.2,0.2,0.3,0.5,0.3,0.7l-0.1,6l9.8,1.7c0.4,0.1,0.7,0.3,0.8,0.7c0.1,0.4,0,0.7-0.2,1L37.4,45.7C37.2,45.9,37,46,36.7,46z
M36,33.5l1.4,9.3l7.6-7.8l-8.8-1.5C36.1,33.5,36,33.5,36,33.5z M12.8,17.9l15,15.4l7.1-0.8c0.2,0,0.3,0,0.5,0.1c0,0,0,0,0,0
l0.1-6.4L19.4,10.3l-6.3,1.6c-0.1,0-0.2,0-0.3,0c0,0.1,0,0.1,0,0.2L12.8,17.9L12.8,17.9z M2.8,10.2c1.5,0.4,4,0.9,6.9,0.9
c0.6,0,1.3,0,1.9-0.1c0,0,0.1,0,0.1,0c0-0.1,0-0.1,0-0.2c0-0.1,0-4.5-1.7-8.2L2.8,10.2z"/>
<path d="M33.6,29.7c-0.5,0-1-0.4-1-0.9c0-0.1-0.3-0.6-3.7-1c-0.5-0.1-0.9-0.1-1.1-0.2c-2.5-0.5-4.3-2.5-4.3-4.9
c0-2-0.3-2.6-1.8-3c-0.2-0.1-0.5-0.1-0.7-0.2c-1-0.3-2.1-0.6-3-1.6c-0.5-0.5-1-1.4-1.2-2.1c-0.1-0.3-0.2-0.7-0.2-1
c0-0.1,0-0.3,0-0.4c-0.3-0.5-0.1-1.1,0.4-1.3c0.5-0.3,1.1-0.1,1.4,0.4c0.2,0.4,0.3,0.8,0.3,1.1c0,0.2,0,0.4,0.1,0.5
c0.2,0.4,0.5,1.1,0.9,1.4c0.5,0.5,1.2,0.7,2.1,1c0.3,0.1,0.5,0.1,0.8,0.2c2.9,1,3.2,3,3.2,5c0,1.7,1.4,2.7,2.7,2.9
c0.2,0,0.6,0.1,1,0.1c2.1,0.3,5.3,0.7,5.5,2.9C34.7,29.2,34.2,29.6,33.6,29.7C33.7,29.7,33.6,29.7,33.6,29.7z"/>
</svg>
