<?xml version="1.0" encoding="utf-8"?>
<!-- Generator: Adobe Illustrator 20.1.0, SVG Export Plug-In . SVG Version: 6.00 Build 0)  -->
<svg version="1.1" id="Layer_1" xmlns="http://www.w3.org/2000/svg" xmlns:xlink="http://www.w3.org/1999/xlink" x="0px" y="0px"
	 width="26px" height="42px" viewBox="0 0 26 42" style="enable-background:new 0 0 26 42;" xml:space="preserve"
	 fill="#fff">
<path d="M25.88,18.55c-0.27-0.89-1.06-1.27-1.77-0.8c-0.3,0.2-0.4,0.12-0.6-0.1c-0.36-0.39-0.81-0.61-1.36-0.48
	c-0.57,0.15-0.86,0.57-0.98,1.12c-0.07,0.32-0.15,0.65-0.19,0.98c-0.2,1.42-0.9,2.34-2.36,2.63c-0.69,0.13-1.45-0.3-1.56-1.02
	c-0.12-0.82-0.3-1.62-0.62-2.39c-0.53-1.26-1.34-2.25-2.67-2.7c-0.3-0.1-0.25-0.27-0.23-0.48c0.12-1.75,0.36-3.49,0.78-5.2
	c0.15-0.63,0.18-1.25,0.01-1.87c-0.06-0.24-0.03-0.44,0.05-0.66c0.34-0.94,0.71-1.87,0.97-2.83c0.34-1.24,0.23-2.48-0.31-3.64
	c-0.51-1.09-1.52-1.4-2.57-0.84c-0.34,0.18-0.64,0.42-0.92,0.69C10.26,2.2,9.71,3.73,9.8,5.51c0.01,0.2,0.04,0.4-0.09,0.6
	C9.17,6.99,8.66,7.89,8.14,8.78c-1.25,2.17-2.66,4.23-4.45,6.01c-1.03,1.02-1.94,2.16-2.73,3.38c-0.44,0.68-0.89,1.37-0.94,2.2
	C-0.11,22.24,0.3,24,1.38,25.55c0.69,0.98,1.64,1.56,2.86,1.36c0.63-0.1,1.06,0.13,1.5,0.46c0.21,0.16,0.41,0.32,0.62,0.49
	c1.52,1.25,3.04,2.51,4.56,3.76c0.19,0.15,0.24,0.3,0.24,0.53c-0.01,1.21,0,2.42,0,3.63c-0.03,0-0.05,0-0.08,0
	c0,1.18-0.01,2.35,0,3.53c0.01,0.86,0.3,1.58,1.09,2.02c0.44,0.24,0.9,0.45,1.39,0.59c0.87,0.25,1.41-0.05,1.68-0.92
	c0.62-2.01,1.26-4.01,1.88-6.01c0.08-0.27,0.19-0.38,0.5-0.38c1.19,0.01,2.19-0.46,3.04-1.28c0.51-0.49,0.92-1.05,1.3-1.64
	c2.11-3.33,3.33-7,3.9-10.89C25.96,20.06,26.1,19.3,25.88,18.55z M14.46,18.39c0.67,0.98,0.87,2.13,0.98,3.29c0.03,0.33,0,0.67,0,1
	c0.03,1.2-0.09,2.38-0.63,3.48c-0.79,1.61-1.78,1.81-3.12,0.63c-0.96-0.84-1.47-1.93-1.66-3.19c-0.18-1.2-0.06-2.38,0.22-3.55
	c0.17-0.73,0.56-1.36,1.06-1.9C12.36,17.03,13.58,17.11,14.46,18.39z M13.07,1.92c0.28-0.21,0.44-0.2,0.55,0.17
	c0.13,0.44,0.18,0.89,0.2,1.35c0.04,0.94-0.42,1.75-0.69,2.62c-0.05,0.17-0.16,0.15-0.27,0.06c-0.35-0.26-0.73-0.47-1.16-0.56
	c-0.21-0.05-0.21-0.19-0.21-0.35C11.5,3.83,12.01,2.74,13.07,1.92z M9.86,9.24c0.34-0.59,0.7-1.17,1.02-1.77
	c0.15-0.27,0.3-0.33,0.58-0.22c0.91,0.38,1.48,1.4,1.24,2.35c-0.49,1.91-0.71,3.86-0.88,5.81c-0.01,0.16,0.06,0.35-0.17,0.45
	c-0.23,0.1-0.35-0.04-0.5-0.15c-1.21-0.94-2.45-1.83-4.07-2.11C8.1,12.17,8.99,10.72,9.86,9.24z M13.56,40.06
	c-0.28-0.05-0.66-0.12-0.76-0.53c-0.04-0.2-0.06-0.36,0.23-0.26c0.27,0.1,0.55,0.16,0.86,0.25C13.75,39.71,13.88,40.12,13.56,40.06z
	 M15.48,34.51c-0.31,0.95-0.59,1.9-0.9,2.85c-0.17,0.52-0.85,0.57-1.26,0.07c-0.33-0.4-0.5-0.89-0.51-1.41
	c-0.02-1.01-0.01-2.03-0.01-3.14c0.9,0.5,1.68,0.96,2.52,1.27C15.53,34.23,15.54,34.32,15.48,34.51z M23.21,24.83
	c-0.79,2.34-1.69,4.6-3.16,6.59c-0.56,0.75-1.23,1.34-2.2,1.46c-0.66,0.08-1.28-0.08-1.88-0.33c-2.01-0.83-3.79-2.04-5.45-3.44
	C9,27.85,7.56,26.5,5.91,25.41c-0.46-0.3-0.88-0.42-1.42-0.28c-0.84,0.23-1.29,0.06-1.79-0.66c-0.71-1.03-0.94-2.21-1.03-3.43
	c-0.05-0.58,0.19-1.07,0.47-1.54c0.86-1.44,1.97-2.67,3.1-3.89c0.33-0.36,0.8-0.41,1.26-0.35c1.3,0.15,2.33,0.85,3.33,1.62
	c0.21,0.17,0.06,0.25-0.03,0.37c-1.99,2.83-2.03,5.84-0.71,8.93c0.51,1.19,1.44,2.06,2.57,2.67c1.35,0.74,2.75,0.5,3.79-0.64
	c1.1-1.21,1.51-2.69,1.64-4.28c0.03-0.33,0.05-0.5,0.43-0.31c0.3,0.15,0.64,0.14,0.97,0.06c1.11-0.28,2.24-0.53,3.04-1.47
	c0.23-0.27,0.47-0.27,0.77-0.06C23.1,22.72,23.58,23.73,23.21,24.83z M24.07,21.39c-0.51-0.4-0.91-0.78-1.43-0.99
	c-0.17-0.07-0.12-0.19-0.1-0.3c0.04-0.2,0.09-0.4,0.15-0.65c0.44,0.39,0.89,0.7,1.5,0.54C24.25,20.45,24.1,20.87,24.07,21.39z"/>
</svg>
