<svg xmlns="http://www.w3.org/2000/svg" viewBox="0 0 17 24">
<path d="M5,23.5C5,23.78,5.22,24,5.5,24S6,23.78,6,23.5v-7C6,16.22,5.78,16,5.5,16S5,16.22,5,16.5V23.5z"/>
<path d="M14,8.5C14,3.81,10.19,0,5.5,0S-3,3.81-3,8.5S0.81,17,5.5,17S14,13.19,14,8.5z M-2,8.5C-2,4.36,1.36,1,5.5,1
S13,4.36,13,8.5S9.64,16,5.5,16S-2,12.64-2,8.5z"/>
<path d="M6.8,1.33c-0.36-0.56-0.72-0.97-0.97-1.2c-0.2-0.19-0.52-0.17-0.71,0.03S4.96,0.68,5.16,0.87
C5.21,0.91,5.29,0.99,5.4,1.12c0.19,0.21,0.38,0.46,0.56,0.75c1.21,1.91,1.21,4.04-0.83,6.3C4.94,8.37,4.96,8.69,5.17,8.87
c0.21,0.18,0.52,0.17,0.71-0.04C8.24,6.21,8.24,3.59,6.8,1.33z"/>
<path d="M11.84,6.89c0.36-0.5,0.64-1.03,0.85-1.55c0.12-0.32,0.2-0.57,0.23-0.73c0.06-0.27-0.11-0.54-0.38-0.59
C12.26,3.95,12,4.12,11.94,4.39c-0.02,0.11-0.08,0.31-0.19,0.58c-0.18,0.45-0.41,0.9-0.72,1.33C9.9,7.84,8.17,8.56,5.6,8.01
C5.33,7.95,5.07,8.13,5.01,8.4C4.95,8.67,5.13,8.93,5.4,8.99C8.35,9.62,10.48,8.74,11.84,6.89z"/>
<path d="M8.45,12.77c1.2,0.51,2.45,0.55,3.61,0.33c0.24-0.05,0.42-0.09,0.52-0.13c0.26-0.08,0.41-0.37,0.32-0.63
c-0.08-0.26-0.37-0.41-0.63-0.32c-0.07,0.02-0.21,0.06-0.4,0.1c-0.98,0.19-2.05,0.15-3.03-0.27c-1.27-0.54-2.26-1.65-2.86-3.5
C5.89,8.08,5.61,7.94,5.35,8.02S4.94,8.39,5.02,8.65C5.71,10.78,6.9,12.11,8.45,12.77z"/>
<path d="M4.2,15.67c0.36,0.56,0.72,0.97,0.97,1.2c0.2,0.19,0.52,0.17,0.71-0.03c0.19-0.2,0.17-0.52-0.03-0.71
c-0.04-0.04-0.13-0.12-0.24-0.25c-0.19-0.21-0.38-0.46-0.56-0.75c-1.21-1.91-1.21-4.04,0.83-6.3c0.18-0.21,0.17-0.52-0.04-0.71
C5.63,7.94,5.31,7.96,5.13,8.17C2.76,10.79,2.76,13.41,4.2,15.67z"/>
<path d="M-0.84,10.11c-0.36,0.5-0.64,1.03-0.85,1.55c-0.12,0.32-0.2,0.57-0.23,0.73c-0.06,0.27,0.11,0.54,0.38,0.59
s0.54-0.11,0.59-0.38c0.02-0.11,0.08-0.31,0.19-0.58c0.18-0.45,0.41-0.9,0.72-1.33C1.1,9.16,2.83,8.44,5.4,8.99
C5.67,9.05,5.93,8.87,5.99,8.6C6.05,8.33,5.87,8.07,5.6,8.01C2.65,7.38,0.52,8.26-0.84,10.11z"/>
<path d="M2.55,4.23C1.36,3.73,0.1,3.68-1.06,3.9C-1.3,3.94-1.48,3.99-1.58,4.02C-1.84,4.11-1.99,4.39-1.9,4.65
c0.08,0.26,0.37,0.41,0.63,0.32c0.07-0.02,0.21-0.06,0.4-0.1C0.11,4.7,1.18,4.74,2.16,5.15c1.27,0.54,2.26,1.65,2.86,3.5
c0.09,0.26,0.37,0.41,0.63,0.32s0.41-0.37,0.32-0.63C5.29,6.22,4.1,4.89,2.55,4.23z"/>
</svg>
