<?xml version="1.0" encoding="utf-8"?>
<!-- Generator: Adobe Illustrator 20.1.0, SVG Export Plug-In . SVG Version: 6.00 Build 0)  -->
<svg version="1.1" id="Layer_1" xmlns="http://www.w3.org/2000/svg" xmlns:xlink="http://www.w3.org/1999/xlink" x="0px" y="0px"
	 width="40px" height="30px" viewBox="0 0 40 30" style="enable-background:new 0 0 40 30;" xml:space="preserve">
<style type="text/css">
	.st0{fill:#6D58A5;}
</style>
<path class="st0" d="M34,0H6L0,6v6c0,2.76,2.24,5,5,5v11H0v2h40v-2h-5V17c2.76,0,5-2.24,5-5V6L34,0z M6.83,2h26.34l4,4H2.83L6.83,2z
	 M23,28h-6v-7h6V28z M33,28h-8v-9H15v9H7V16.58c1.47-0.64,2.57-1.97,2.9-3.58c0.07-0.32,0.1-0.66,0.1-1c0,0.34,0.04,0.68,0.1,1
	c0.46,2.28,2.48,4,4.9,4s4.44-1.72,4.9-4c0.07-0.32,0.1-0.66,0.1-1c0,0.34,0.04,0.68,0.1,1c0.46,2.28,2.48,4,4.9,4s4.44-1.72,4.9-4
	c0.07-0.32,0.1-0.66,0.1-1c0,0.34,0.04,0.68,0.1,1c0.33,1.61,1.43,2.93,2.9,3.58V28z M38,12c0,1.65-1.35,3-3,3c-1.65,0-3-1.35-3-3
	c0-1.1-0.9-2-2-2c-1.1,0-2,0.9-2,2c0,1.65-1.35,3-3,3c-1.65,0-3-1.35-3-3c0-1.1-0.9-2-2-2c-1.1,0-2,0.9-2,2c0,1.65-1.35,3-3,3
	c-1.65,0-3-1.35-3-3c0-1.1-0.9-2-2-2c-1.1,0-2,0.9-2,2c0,1.65-1.35,3-3,3c-1.65,0-3-1.35-3-3V8h36V12z"/>
</svg>
